<svg id="visual" viewBox="0 0 900 600" width="900" height="600" xmlns="http://www.w3.org/2000/svg" xmlns:xlink="http://www.w3.org/1999/xlink" version="1.1"><rect x="0" y="0" width="900" height="600" fill="#001220"></rect><defs><linearGradient id="grad1_0" x1="33.3%" y1="0%" x2="100%" y2="100%"><stop offset="20%" stop-color="#001220" stop-opacity="1"></stop><stop offset="80%" stop-color="#001220" stop-opacity="1"></stop></linearGradient></defs><defs><linearGradient id="grad2_0" x1="0%" y1="0%" x2="66.7%" y2="100%"><stop offset="20%" stop-color="#001220" stop-opacity="1"></stop><stop offset="80%" stop-color="#001220" stop-opacity="1"></stop></linearGradient></defs><g transform="translate(900, 0)"><path d="M0 486.7C-49.8 443.2 -99.7 399.7 -156.9 378.8C-214.1 357.9 -278.7 359.5 -331.6 331.6C-384.6 303.8 -425.8 246.5 -449.7 186.3C-473.6 126.1 -480.2 63 -486.7 0L0 0Z" fill="#FBAE3C"></path></g><g transform="translate(0, 600)"><path d="M0 -486.7C69.6 -486.7 139.2 -486.7 186.3 -449.7C233.4 -412.7 258.1 -338.7 285.7 -285.7C313.3 -232.7 343.9 -200.6 377.9 -156.5C411.9 -112.4 449.3 -56.2 486.7 0L0 0Z" fill="#FBAE3C"></path></g></svg>