<svg id="visual" viewBox="0 0 900 600" width="900" height="600" xmlns="http://www.w3.org/2000/svg" xmlns:xlink="http://www.w3.org/1999/xlink" version="1.1"><g stroke-width="1" stroke-linejoin="bevel"><path d="M491 310L535 372L560 266Z" fill="#0c2435" stroke="#0c2435"></path><path d="M535 372L606 375L560 266Z" fill="#277297" stroke="#277297"></path><path d="M709 271L586 205L560 266Z" fill="#297ea6" stroke="#297ea6"></path><path d="M560 266L502 178L491 310Z" fill="#0c2435" stroke="#0c2435"></path><path d="M586 205L502 178L560 266Z" fill="#00101c" stroke="#00101c"></path><path d="M387 239L390 280L491 310Z" fill="#15384f" stroke="#15384f"></path><path d="M491 310L374 400L535 372Z" fill="#246688" stroke="#246688"></path><path d="M636 499L681 414L606 375Z" fill="#00101c" stroke="#00101c"></path><path d="M606 375L709 271L560 266Z" fill="#15384f" stroke="#15384f"></path><path d="M681 414L709 271L606 375Z" fill="#0c2435" stroke="#0c2435"></path><path d="M502 178L387 239L491 310Z" fill="#277297" stroke="#277297"></path><path d="M374 400L526 503L535 372Z" fill="#15384f" stroke="#15384f"></path><path d="M535 372L526 503L606 375Z" fill="#0c2435" stroke="#0c2435"></path><path d="M280 337L374 400L390 280Z" fill="#1d4e6b" stroke="#1d4e6b"></path><path d="M390 280L374 400L491 310Z" fill="#297ea6" stroke="#297ea6"></path><path d="M709 271L715 226L586 205Z" fill="#00101c" stroke="#00101c"></path><path d="M586 205L534 99L502 178Z" fill="#0c2435" stroke="#0c2435"></path><path d="M526 503L636 499L606 375Z" fill="#19435d" stroke="#19435d"></path><path d="M675 110L534 99L586 205Z" fill="#277297" stroke="#277297"></path><path d="M502 178L424 106L387 239Z" fill="#15384f" stroke="#15384f"></path><path d="M660 600L687 501L636 499Z" fill="#081a28" stroke="#081a28"></path><path d="M636 499L687 501L681 414Z" fill="#0c2435" stroke="#0c2435"></path><path d="M681 414L795 339L709 271Z" fill="#19435d" stroke="#19435d"></path><path d="M709 271L799 210L715 226Z" fill="#297ea6" stroke="#297ea6"></path><path d="M534 99L424 106L502 178Z" fill="#15384f" stroke="#15384f"></path><path d="M715 226L675 110L586 205Z" fill="#00101c" stroke="#00101c"></path><path d="M424 106L328 196L387 239Z" fill="#297ea6" stroke="#297ea6"></path><path d="M387 239L328 196L390 280Z" fill="#00101c" stroke="#00101c"></path><path d="M796 391L795 339L681 414Z" fill="#112e42" stroke="#112e42"></path><path d="M715 226L761 80L675 110Z" fill="#0c2435" stroke="#0c2435"></path><path d="M675 110L562 64L534 99Z" fill="#277297" stroke="#277297"></path><path d="M534 99L532 0L424 106Z" fill="#1d4e6b" stroke="#1d4e6b"></path><path d="M687 501L796 391L681 414Z" fill="#19435d" stroke="#19435d"></path><path d="M328 196L280 337L390 280Z" fill="#297ea6" stroke="#297ea6"></path><path d="M374 400L383 535L526 503Z" fill="#081a28" stroke="#081a28"></path><path d="M280 337L290 398L374 400Z" fill="#246688" stroke="#246688"></path><path d="M289 528L383 535L374 400Z" fill="#277297" stroke="#277297"></path><path d="M526 503L608 600L636 499Z" fill="#0c2435" stroke="#0c2435"></path><path d="M795 339L799 210L709 271Z" fill="#1d4e6b" stroke="#1d4e6b"></path><path d="M900 329L799 210L795 339Z" fill="#297ea6" stroke="#297ea6"></path><path d="M466 600L608 600L526 503Z" fill="#205a7a" stroke="#205a7a"></path><path d="M687 501L832 521L796 391Z" fill="#112e42" stroke="#112e42"></path><path d="M383 535L466 600L526 503Z" fill="#19435d" stroke="#19435d"></path><path d="M366 0L338 107L424 106Z" fill="#1d4e6b" stroke="#1d4e6b"></path><path d="M424 106L338 107L328 196Z" fill="#081a28" stroke="#081a28"></path><path d="M214 316L225 401L280 337Z" fill="#205a7a" stroke="#205a7a"></path><path d="M608 600L660 600L636 499Z" fill="#112e42" stroke="#112e42"></path><path d="M307 600L421 600L383 535Z" fill="#246688" stroke="#246688"></path><path d="M383 535L421 600L466 600Z" fill="#0c2435" stroke="#0c2435"></path><path d="M617 0L532 0L562 64Z" fill="#297ea6" stroke="#297ea6"></path><path d="M562 64L532 0L534 99Z" fill="#246688" stroke="#246688"></path><path d="M799 210L761 80L715 226Z" fill="#00101c" stroke="#00101c"></path><path d="M675 110L617 0L562 64Z" fill="#246688" stroke="#246688"></path><path d="M685 0L617 0L675 110Z" fill="#246688" stroke="#246688"></path><path d="M280 337L225 401L290 398Z" fill="#246688" stroke="#246688"></path><path d="M290 398L289 528L374 400Z" fill="#277297" stroke="#277297"></path><path d="M214 316L280 337L206 208Z" fill="#297ea6" stroke="#297ea6"></path><path d="M214 515L289 528L290 398Z" fill="#081a28" stroke="#081a28"></path><path d="M206 208L280 337L328 196Z" fill="#15384f" stroke="#15384f"></path><path d="M761 80L685 0L675 110Z" fill="#19435d" stroke="#19435d"></path><path d="M806 600L832 521L687 501Z" fill="#112e42" stroke="#112e42"></path><path d="M796 391L900 329L795 339Z" fill="#246688" stroke="#246688"></path><path d="M900 405L900 329L796 391Z" fill="#00101c" stroke="#00101c"></path><path d="M799 210L900 104L761 80Z" fill="#205a7a" stroke="#205a7a"></path><path d="M210 107L206 208L328 196Z" fill="#246688" stroke="#246688"></path><path d="M532 0L366 0L424 106Z" fill="#15384f" stroke="#15384f"></path><path d="M338 107L210 107L328 196Z" fill="#297ea6" stroke="#297ea6"></path><path d="M832 521L900 405L796 391Z" fill="#15384f" stroke="#15384f"></path><path d="M203 600L307 600L289 528Z" fill="#00101c" stroke="#00101c"></path><path d="M289 528L307 600L383 535Z" fill="#297ea6" stroke="#297ea6"></path><path d="M900 329L900 211L799 210Z" fill="#277297" stroke="#277297"></path><path d="M761 80L812 0L685 0Z" fill="#205a7a" stroke="#205a7a"></path><path d="M660 600L806 600L687 501Z" fill="#081a28" stroke="#081a28"></path><path d="M832 521L900 512L900 405Z" fill="#246688" stroke="#246688"></path><path d="M114 470L214 515L225 401Z" fill="#205a7a" stroke="#205a7a"></path><path d="M225 401L214 515L290 398Z" fill="#1d4e6b" stroke="#1d4e6b"></path><path d="M114 470L225 401L83 388Z" fill="#205a7a" stroke="#205a7a"></path><path d="M269 0L210 107L338 107Z" fill="#277297" stroke="#277297"></path><path d="M900 600L900 512L832 521Z" fill="#1d4e6b" stroke="#1d4e6b"></path><path d="M900 211L900 104L799 210Z" fill="#00101c" stroke="#00101c"></path><path d="M900 104L812 0L761 80Z" fill="#00101c" stroke="#00101c"></path><path d="M366 0L269 0L338 107Z" fill="#19435d" stroke="#19435d"></path><path d="M92 81L138 160L210 107Z" fill="#15384f" stroke="#15384f"></path><path d="M210 107L138 160L206 208Z" fill="#1d4e6b" stroke="#1d4e6b"></path><path d="M206 208L80 335L214 316Z" fill="#246688" stroke="#246688"></path><path d="M214 515L203 600L289 528Z" fill="#1d4e6b" stroke="#1d4e6b"></path><path d="M131 600L203 600L214 515Z" fill="#15384f" stroke="#15384f"></path><path d="M806 600L900 600L832 521Z" fill="#00101c" stroke="#00101c"></path><path d="M83 388L225 401L214 316Z" fill="#205a7a" stroke="#205a7a"></path><path d="M269 0L208 0L210 107Z" fill="#0c2435" stroke="#0c2435"></path><path d="M138 160L80 335L206 208Z" fill="#15384f" stroke="#15384f"></path><path d="M80 335L83 388L214 316Z" fill="#1d4e6b" stroke="#1d4e6b"></path><path d="M900 104L900 0L812 0Z" fill="#0c2435" stroke="#0c2435"></path><path d="M0 532L131 600L114 470Z" fill="#205a7a" stroke="#205a7a"></path><path d="M114 470L131 600L214 515Z" fill="#112e42" stroke="#112e42"></path><path d="M127 0L92 81L210 107Z" fill="#081a28" stroke="#081a28"></path><path d="M138 160L0 262L80 335Z" fill="#081a28" stroke="#081a28"></path><path d="M208 0L127 0L210 107Z" fill="#297ea6" stroke="#297ea6"></path><path d="M0 164L138 160L92 81Z" fill="#277297" stroke="#277297"></path><path d="M0 164L0 262L138 160Z" fill="#246688" stroke="#246688"></path><path d="M80 335L0 418L83 388Z" fill="#277297" stroke="#277297"></path><path d="M83 388L0 418L114 470Z" fill="#277297" stroke="#277297"></path><path d="M0 262L0 418L80 335Z" fill="#297ea6" stroke="#297ea6"></path><path d="M0 65L0 164L92 81Z" fill="#1d4e6b" stroke="#1d4e6b"></path><path d="M0 418L0 532L114 470Z" fill="#112e42" stroke="#112e42"></path><path d="M0 0L0 65L92 81Z" fill="#1d4e6b" stroke="#1d4e6b"></path><path d="M0 532L0 600L131 600Z" fill="#246688" stroke="#246688"></path><path d="M127 0L0 0L92 81Z" fill="#19435d" stroke="#19435d"></path></g></svg>